<svg id="Layer_2" data-name="Layer 2" xmlns="http://www.w3.org/2000/svg" viewBox="0 0 891.28 1000"><defs><style>.cls-1{fill:#3a76bb;}.cls-2{fill:#1d1d1b;}</style></defs><path class="cls-1" d="M445.64,276s135.08,60.64,233.57,185.81c0,0,69.42-89.14,82.42-123.57,0,0-88.23-218.41-316-319.18-227.76,100.77-316,319.18-316,319.18,13,34.43,82.42,123.57,82.42,123.57C310.56,336.62,445.64,276,445.64,276Z"/><path class="cls-1" d="M305,491c49.7,66.57,140.67,112.17,140.67,112.17s91-45.6,140.67-112.17c0,0-48.34-67.48-140.67-112.17C353.3,423.49,305,491,305,491Z"/><path class="cls-2" d="M860.12,159.48c-85.5,422.69-414.48,567.45-414.48,567.45s-329-144.76-414.48-567.45c0,0-71.82,576.58,414.48,821.48C931.93,736.06,860.12,159.48,860.12,159.48Z"/></svg>